<?xml version="1.0" standalone="no"?>
<!DOCTYPE svg PUBLIC "-//W3C//DTD SVG 20010904//EN"
 "http://www.w3.org/TR/2001/REC-SVG-20010904/DTD/svg10.dtd">
<svg version="1.0" xmlns="http://www.w3.org/2000/svg"
 width="400.000000pt" height="400.000000pt" viewBox="0 0 400.000000 400.000000"
 preserveAspectRatio="xMidYMid meet">
<metadata>
Created by potrace 1.11, written by Peter Selinger 2001-2013
</metadata>
<g transform="translate(0.000000,400.000000) scale(0.100000,-0.100000)"
fill="#000000" stroke="none">
<path d="M1003 2928 c4 -590 7 -1490 7 -2000 l0 -928 25 0 c16 0 25 6 25 15 0
9 10 35 22 58 17 35 22 68 29 192 5 109 13 165 27 205 12 32 22 92 25 141 3
59 12 101 27 135 14 32 23 75 26 126 2 59 10 89 29 125 17 33 25 64 25 98 1
32 9 68 25 100 14 28 25 68 25 90 0 23 10 60 25 87 14 26 25 64 25 84 0 21 10
55 24 78 13 23 26 65 29 94 4 36 14 63 32 83 17 21 25 42 25 68 0 24 9 49 25
71 14 19 25 45 25 59 0 14 14 46 30 70 18 26 30 57 30 76 0 21 7 37 20 46 12
9 22 29 25 52 2 21 16 52 30 68 14 17 25 41 25 53 0 12 11 37 25 56 14 19 25
39 25 46 0 21 70 152 85 158 8 3 17 21 21 41 3 19 14 40 23 45 10 5 33 39 51
77 19 37 47 78 62 91 15 13 28 30 28 37 0 20 55 105 80 122 11 8 20 25 20 38
0 15 29 59 78 118 42 52 105 130 139 173 34 44 135 151 224 239 89 88 180 180
203 204 23 24 46 48 51 52 60 49 87 69 125 94 77 51 130 98 130 117 0 17 -47
18 -1032 18 l-1031 0 6 -1072z"/>
<path d="M3012 3558 c-7 -7 -12 -33 -12 -58 0 -33 -7 -55 -25 -80 -15 -21 -25
-47 -25 -68 0 -22 -9 -45 -25 -64 -18 -21 -25 -41 -25 -71 0 -27 -8 -53 -25
-77 -15 -22 -27 -56 -30 -86 -3 -28 -14 -62 -27 -79 -15 -20 -23 -49 -26 -90
-3 -39 -12 -70 -25 -89 -14 -20 -22 -53 -27 -105 -4 -49 -14 -87 -26 -106 -13
-21 -21 -55 -25 -120 -5 -59 -14 -105 -28 -135 -15 -34 -21 -65 -21 -125 0
-88 -21 -233 -40 -280 -9 -22 -14 -152 -16 -475 -3 -446 2 -549 33 -634 8 -22
16 -83 19 -134 3 -72 9 -105 29 -146 18 -37 25 -70 25 -110 0 -43 5 -64 22
-87 15 -19 24 -51 29 -95 5 -46 13 -72 28 -88 12 -13 21 -35 21 -53 0 -17 9
-42 20 -56 11 -14 20 -30 20 -36 0 -7 39 -11 115 -11 l115 0 0 1773 c0 1763
-1 1797 -30 1797 -3 0 -11 -5 -18 -12z"/>
<path d="M2411 2831 c-17 -4 -28 -17 -33 -39 -11 -40 2 -67 41 -87 27 -14 30
-13 60 15 37 36 39 58 6 94 -25 27 -33 29 -74 17z"/>
<path d="M2097 2272 c-48 -33 -64 -85 -47 -148 7 -24 21 -51 31 -60 23 -21
113 -30 150 -16 27 11 69 78 69 111 0 65 -75 142 -135 140 -16 -1 -47 -13 -68
-27z"/>
<path d="M1900 1543 c-90 -52 -120 -97 -120 -181 0 -73 20 -119 71 -162 81
-68 172 -68 257 1 44 36 51 47 61 98 13 67 1 154 -27 184 -9 11 -40 34 -68 53
-64 43 -111 45 -174 7z"/>
<path d="M1870 695 c-19 -7 -47 -14 -61 -14 -51 -2 -145 -97 -195 -200 -35
-69 -36 -77 -31 -145 4 -53 13 -86 37 -131 38 -73 95 -142 135 -162 17 -9 34
-22 38 -29 12 -21 317 -20 317 1 0 8 17 23 39 34 41 21 121 105 121 127 0 7
10 32 21 55 54 102 8 285 -97 384 -87 83 -227 117 -324 80z"/>
</g>
</svg>
