<?xml version="1.0" standalone="no"?>
<!DOCTYPE svg PUBLIC "-//W3C//DTD SVG 20010904//EN"
 "http://www.w3.org/TR/2001/REC-SVG-20010904/DTD/svg10.dtd">
<svg version="1.0" xmlns="http://www.w3.org/2000/svg"
 width="213.000000pt" height="256.000000pt" viewBox="0 0 213.000000 256.000000"
 preserveAspectRatio="xMidYMid meet">
<metadata>
Created by potrace 1.13, written by Peter Selinger 2001-2015
</metadata>
<g transform="translate(0.000000,256.000000) scale(0.100000,-0.100000)"
fill="#000000" stroke="none">
<path d="M965 2213 c-251 -40 -435 -182 -496 -385 -52 -171 25 -298 180 -298
165 0 266 92 292 266 18 120 34 141 104 132 48 -5 70 -48 69 -131 -1 -93 -23
-146 -118 -294 -56 -88 -80 -136 -92 -185 -41 -165 35 -266 192 -256 82 5 106
24 157 118 21 41 51 87 65 102 14 15 78 55 143 89 142 73 198 120 236 197 25
50 28 68 28 152 0 86 -3 101 -32 163 -39 82 -139 187 -223 235 -31 17 -98 45
-150 63 -81 27 -112 32 -210 35 -63 1 -128 0 -145 -3z"/>
<path d="M959 915 c-56 -18 -142 -92 -172 -149 -31 -59 -32 -203 0 -261 28
-52 86 -107 143 -136 68 -34 168 -32 242 4 132 65 199 219 154 355 -21 62 -92
144 -150 174 -53 27 -155 33 -217 13z"/>
</g>
</svg>
